HIERARCHY
ROOT Hips
{
	OFFSET 0.00000 0.00000 0.00000
	CHANNELS 6 Xposition Yposition Zposition Zrotation Yrotation Xrotation 
	JOINT LHipJoint
	{
		OFFSET 0 0 0
		CHANNELS 3 Zrotation Yrotation Xrotation
		JOINT LeftHip
		{
			OFFSET 1.65674 -1.80282 0.62477
			CHANNELS 3 Zrotation Yrotation Xrotation
			JOINT LeftKnee
			{
				OFFSET 2.59720 -7.13576 0.00000
				CHANNELS 3 Zrotation Yrotation Xrotation
				JOINT LeftAnkle
				{
					OFFSET 2.49236 -6.84770 0.00000
					CHANNELS 3 Zrotation Yrotation Xrotation
					JOINT LeftToe
					{
						OFFSET 0.19704 -0.54136 2.14581
						CHANNELS 3 Zrotation Yrotation Xrotation
						End Site
						{
							OFFSET 0.00000 -0.00000 1.11249
						}
					}
				}
			}
		}
	}
	JOINT RHipJoint
	{
		OFFSET 0 0 0
		CHANNELS 3 Zrotation Yrotation Xrotation
		JOINT RightHip
		{
			OFFSET -1.61070 -1.80282 0.62476
			CHANNELS 3 Zrotation Yrotation Xrotation
			JOINT RightKnee
			{
				OFFSET -2.59502 -7.12977 0.00000
				CHANNELS 3 Zrotation Yrotation Xrotation
				JOINT RightAnkle
				{
					OFFSET -2.46780 -6.78024 0.00000
					CHANNELS 3 Zrotation Yrotation Xrotation
					JOINT RightToe
					{
						OFFSET -0.23024 -0.63258 2.13368
						CHANNELS 3 Zrotation Yrotation Xrotation
						End Site
						{
							OFFSET -0.00000 -0.00000 1.11569
						}
					}
				}
			}
		}
	}
	JOINT lowerback
	{
		OFFSET 0 0 0
		CHANNELS 3 Zrotation Yrotation Xrotation
		JOINT Chest
		{
			OFFSET 0.01961 2.05450 -0.14112
			CHANNELS 3 Zrotation Yrotation Xrotation
			JOINT Chest2
			{
				OFFSET 0.01021 2.06436 -0.05921
				CHANNELS 3 Zrotation Yrotation Xrotation
				JOINT lowerneck
				{
					OFFSET 0 0 0
					CHANNELS 3 Zrotation Yrotation Xrotation
					JOINT Neck
					{
						OFFSET 0.00713 1.56711 0.14968
						CHANNELS 3 Zrotation Yrotation Xrotation
						JOINT Head
						{
							OFFSET 0.03429 1.56041 -0.10006
							CHANNELS 3 Zrotation Yrotation Xrotation
							End Site
							{
								OFFSET 0.01305 1.62560 -0.05265
							}
						}
					}
				}
				JOINT LeftCollar
				{
					OFFSET 0 0 0
					CHANNELS 3 Zrotation Yrotation Xrotation
					JOINT LeftShoulder
					{
						OFFSET 3.54205 0.90436 -0.17364
CHANNELS 3 Zrotation Xrotation Yrotation
						JOINT LeftElbow
						{
OFFSET 0 -4.865130 -0.000000
CHANNELS 3 Zrotation Xrotation Yrotation
							JOINT LeftWrist
							{
OFFSET 0 -3.355540 0.000000
CHANNELS 3 Zrotation Xrotation Yrotation
								JOINT lhand
								{
									OFFSET 0 0 0
CHANNELS 3 Zrotation Xrotation Yrotation
									JOINT LFingers
									{
OFFSET 0 -0.661170 0.000000
CHANNELS 3 Zrotation Xrotation Yrotation
										End Site
										{
OFFSET 0 -0.533060 0.000000
										}
									}
								}
								JOINT LThumb
								{
OFFSET 0 0.000000 0.000000
CHANNELS 3 Zrotation Xrotation Yrotation
									End Site
									{
OFFSET 0 -0.541200 0.541200
									}
								}
							}
						}
					}
				}
				JOINT RightCollar
				{
					OFFSET 0 0 0
					CHANNELS 3 Zrotation Yrotation Xrotation
					JOINT RightShoulder
					{
						OFFSET -3.49802 0.75994 -0.32616
CHANNELS 3 Zrotation Xrotation Yrotation
						JOINT RightElbow
						{
OFFSET 0 -5.026490 0.000000
CHANNELS 3 Zrotation Xrotation Yrotation
							JOINT RightWrist
							{
OFFSET 0 -3.364310 0.000000
CHANNELS 3 Zrotation Xrotation Yrotation
								JOINT rhand
								{
									OFFSET 0 0 0
CHANNELS 3 Zrotation Xrotation Yrotation
									JOINT RFingers
									{
OFFSET 0 -0.730410 0.000000
CHANNELS 3 Zrotation Xrotation Yrotation
										End Site
										{
OFFSET 0 -0.588870 0.000000
										}
									}
								}
								JOINT RThumb
								{
OFFSET 0 0.000000 0.000000
CHANNELS 3 Zrotation Xrotation Yrotation
									End Site
									{
OFFSET 0 -0.597860 0.597860
									}
								}
							}
						}
					}
				}
			}
		}
	}
}
MOTION
Frames: 11
Frame Time: 0.008333333333333333
8.653644 18.052124 -2.545023 1.990938 -0.046636 2.095257 0.000000 0.000000 0.000000 -28.940649 1.849528 16.789497 1.874340 8.596927 24.543963 0.522503 8.763511 13.376139 1.102506 -6.671600 -18.746108 0.000000 0.000000 0.000000 16.015970 22.998371 -34.549487 -8.902826 -16.736424 55.740611 -1.057772 -5.220163 -21.976938 -1.017302 6.414373 -17.992569 -2.423275 -4.052629 5.921061 0.612153 -5.538096 0.510146 2.410180 -2.731642 -2.491846 -1.025719 3.297591 -15.174126 -1.618817 4.510671 -4.116637 -0.087692 2.204961 1.256966 0.000000 0.000000 0.000000 14.710986 -3.294023 -52.594440 135.064576 -50.736825 97.811250 33.610443 -28.001147 -1.161803 0.000000 0.000000 0.000000 -7.125000 0.000000 0.000000 5.622616 31.345081 1.884823 0.000000 0.000000 0.000000 -12.590187 47.386659 42.616164 -66.765977 -57.857841 -40.023580 -51.371290 -47.844744 -35.950526 0.000000 0.000000 0.000000 7.125000 0.000000 0.000000 -9.098074 -18.776447 -11.659679
8.654132 18.067371 -2.422268 2.143814 0.024892 2.141172 0.000000 0.000000 0.000000 -29.034948 1.935183 16.748090 1.942020 8.739782 24.987688 0.483710 8.842534 12.961817 1.116318 -6.711599 -18.863924 0.000000 0.000000 0.000000 15.866511 22.866514 -34.338062 -8.551877 -16.493671 54.500833 -1.075317 -5.079088 -22.043814 -1.063906 6.552720 -18.398707 -2.470625 -4.075888 5.779384 0.547258 -5.570888 0.476837 2.361939 -2.748325 -2.447339 -0.907358 3.311374 -15.264979 -1.740251 4.516213 -3.930710 -0.141675 2.200682 1.340899 0.000000 0.000000 0.000000 14.716959 -3.010869 -52.828521 135.008927 -50.764075 97.768149 33.501529 -28.157641 -1.088610 0.000000 0.000000 0.000000 -7.125000 0.000000 0.000000 5.531447 31.257042 1.865470 0.000000 0.000000 0.000000 -12.269560 47.530576 42.297892 -67.094930 -57.920123 -40.302341 -51.241271 -47.621431 -35.880779 0.000000 0.000000 0.000000 7.125000 0.000000 0.000000 -9.058821 -18.629142 -11.594038
8.654620 18.082619 -2.299514 2.296690 0.096420 2.187086 0.000000 0.000000 0.000000 -29.129246 2.020839 16.706684 2.009700 8.882637 25.431414 0.444917 8.921556 12.547495 1.130129 -6.751598 -18.981739 0.000000 0.000000 0.000000 15.717052 22.734657 -34.126637 -8.200928 -16.250919 53.261054 -1.092861 -4.938014 -22.110690 -1.110509 6.691066 -18.804846 -2.517976 -4.099147 5.637706 0.482363 -5.603680 0.443528 2.313699 -2.765008 -2.402831 -0.788997 3.325157 -15.355832 -1.861684 4.521755 -3.744784 -0.195658 2.196404 1.424831 0.000000 0.000000 0.000000 14.722932 -2.727715 -53.062602 134.953278 -50.791325 97.725049 33.392615 -28.314135 -1.015417 0.000000 0.000000 0.000000 -7.125000 0.000000 0.000000 5.440278 31.169003 1.846116 0.000000 0.000000 0.000000 -11.948934 47.674493 41.979621 -67.423884 -57.982405 -40.581102 -51.111252 -47.398118 -35.811031 0.000000 0.000000 0.000000 7.125000 0.000000 0.000000 -9.019568 -18.481836 -11.528396
8.655122 18.097831 -2.176790 2.449714 0.167647 2.232787 0.000000 0.000000 0.000000 -29.223477 2.106869 16.663918 2.077726 9.025980 25.876821 0.405816 9.005668 12.130830 1.142218 -6.786299 -19.084061 0.000000 0.000000 0.000000 15.567442 22.602939 -33.914979 -7.850593 -16.007948 52.022388 -1.110607 -4.795748 -22.178632 -1.156950 6.828799 -19.209230 -2.565274 -4.122180 5.497433 0.417484 -5.636204 0.409845 2.265564 -2.781530 -2.359512 -0.680460 3.339350 -15.440928 -1.972418 4.529101 -3.564658 -0.244715 2.193513 1.505311 0.000000 0.000000 0.000000 14.729039 -2.443917 -53.296943 134.897745 -50.818516 97.682037 33.283932 -28.471065 -0.941702 0.000000 0.000000 0.000000 -7.125000 0.000000 0.000000 5.349272 31.080356 1.826870 0.000000 0.000000 0.000000 -11.628995 47.817751 41.662149 -67.752818 -58.044619 -40.859857 -50.984234 -47.178349 -35.741087 0.000000 0.000000 0.000000 7.125000 0.000000 0.000000 -8.981871 -18.335979 -11.464922
8.656356 18.111068 -2.055845 2.611061 0.221946 2.266470 0.000000 0.000000 0.000000 -29.313899 2.214032 16.544523 2.165219 9.196831 26.416941 0.349421 9.376516 11.582153 1.057223 -6.522498 -18.313564 0.000000 0.000000 0.000000 15.409311 22.479065 -33.690173 -7.534848 -15.752675 50.846356 -1.139695 -4.586362 -22.306584 -1.194222 6.931942 -19.514810 -2.609667 -4.132518 5.436242 0.353508 -5.653605 0.355116 2.223383 -2.788996 -2.383144 -1.125363 3.376622 -15.201707 -1.480395 4.638102 -3.711332 -0.016263 2.268803 1.391286 0.000000 0.000000 0.000000 14.742765 -2.123807 -53.545956 134.848729 -50.842349 97.644019 33.188284 -28.652541 -0.838588 0.000000 0.000000 0.000000 -7.125000 0.000000 0.000000 5.267407 30.957458 1.813661 0.000000 0.000000 0.000000 -11.347794 47.923851 41.389763 -68.080623 -58.103053 -41.138301 -51.026330 -47.158220 -35.660083 0.000000 0.000000 0.000000 7.125000 0.000000 0.000000 -9.031806 -18.271687 -11.523499
8.657591 18.124306 -1.934899 2.772408 0.276245 2.300152 0.000000 0.000000 0.000000 -29.404321 2.321194 16.425128 2.252712 9.367683 26.957061 0.293026 9.747364 11.033476 0.972228 -6.258698 -17.543067 0.000000 0.000000 0.000000 15.251180 22.355190 -33.465367 -7.219103 -15.497403 49.670324 -1.168783 -4.376975 -22.434536 -1.231493 7.035084 -19.820390 -2.654060 -4.142855 5.375051 0.289532 -5.671006 0.300386 2.181201 -2.796462 -2.406776 -1.570266 3.413893 -14.962486 -0.988371 4.747102 -3.858006 0.212190 2.344092 1.277260 0.000000 0.000000 0.000000 14.756490 -1.803698 -53.794968 134.799714 -50.866182 97.606001 33.092636 -28.834017 -0.735474 0.000000 0.000000 0.000000 -7.125000 0.000000 0.000000 5.185542 30.834560 1.800452 0.000000 0.000000 0.000000 -11.066593 48.029951 41.117377 -68.408428 -58.161487 -41.416746 -51.068425 -47.138091 -35.579080 0.000000 0.000000 0.000000 7.125000 0.000000 0.000000 -9.081740 -18.207395 -11.582077
8.658826 18.137543 -1.813954 2.933755 0.330545 2.333834 0.000000 0.000000 0.000000 -29.494743 2.428357 16.305733 2.340206 9.538534 27.497181 0.236630 10.118213 10.484799 0.887233 -5.994898 -16.772571 0.000000 0.000000 0.000000 15.093049 22.231316 -33.240561 -6.903358 -15.242131 48.494292 -1.197871 -4.167589 -22.562487 -1.268764 7.138227 -20.125970 -2.698452 -4.153192 5.313861 0.225556 -5.688407 0.245656 2.139019 -2.803928 -2.430408 -2.015168 3.451164 -14.723265 -0.496348 4.856102 -4.004680 0.440643 2.419382 1.163235 0.000000 0.000000 0.000000 14.770216 -1.483588 -54.043980 134.750698 -50.890015 97.567983 32.996987 -29.015493 -0.632360 0.000000 0.000000 0.000000 -7.125000 0.000000 0.000000 5.103677 30.711662 1.787244 0.000000 0.000000 0.000000 -10.785391 48.136051 40.844991 -68.736233 -58.219921 -41.695191 -51.110521 -47.117962 -35.498076 0.000000 0.000000 0.000000 7.125000 0.000000 0.000000 -9.131675 -18.143103 -11.640655
8.659431 18.148277 -1.693576 3.055123 0.370007 2.349991 0.000000 0.000000 0.000000 -29.539135 2.543138 16.180931 2.435440 9.715806 28.064425 0.178284 10.519732 9.930546 0.800778 -5.694912 -15.906050 0.000000 0.000000 0.000000 14.990395 22.135211 -32.976067 -6.608455 -14.985308 47.363092 -1.227895 -3.976403 -22.708440 -1.340793 7.323033 -20.679796 -2.710622 -4.162684 5.271562 0.168000 -5.702935 0.202691 2.086517 -2.810395 -2.455069 -2.471652 3.481386 -14.475766 -0.004570 4.955795 -4.212129 0.668128 2.489480 1.029120 0.000000 0.000000 0.000000 14.803478 -1.155369 -54.276620 134.692482 -50.918194 97.522792 32.943116 -29.138374 -0.553744 0.000000 0.000000 0.000000 -7.125000 0.000000 0.000000 5.056400 30.618115 1.782221 0.000000 0.000000 0.000000 -10.517644 48.195568 40.604168 -69.050368 -58.274224 -41.962301 -51.119794 -47.146475 -35.467250 0.000000 0.000000 0.000000 7.125000 0.000000 0.000000 -9.147328 -18.114905 -11.658209
8.659488 18.156834 -1.573693 3.141726 0.396568 2.350910 0.000000 0.000000 0.000000 -29.543499 2.664543 16.051429 2.537405 9.898660 28.655255 0.118242 10.947923 9.371446 0.713056 -5.363460 -14.956030 0.000000 0.000000 0.000000 14.935981 22.063252 -32.677063 -6.331676 -14.727136 46.270878 -1.258735 -3.801043 -22.870045 -1.443046 7.578850 -21.449489 -2.694771 -4.171442 5.245690 0.116027 -5.714967 0.169956 2.025039 -2.815994 -2.480625 -2.938206 3.505478 -14.221068 0.486993 5.047394 -4.472426 0.894772 2.555064 0.877536 0.000000 0.000000 0.000000 14.853729 -0.820098 -54.495023 134.626267 -50.950154 97.471364 32.925571 -29.210304 -0.496429 0.000000 0.000000 0.000000 -7.125000 0.000000 0.000000 5.039200 30.550090 1.784317 0.000000 0.000000 0.000000 -10.261597 48.214577 40.390790 -69.352617 -58.324934 -42.219554 -51.100527 -47.217285 -35.480057 0.000000 0.000000 0.000000 7.125000 0.000000 0.000000 -9.133172 -18.118092 -11.640090
8.659546 18.165391 -1.453810 3.228329 0.423129 2.351829 0.000000 0.000000 0.000000 -29.547864 2.785948 15.921926 2.639370 10.081514 29.246085 0.058200 11.376114 8.812345 0.625333 -5.032008 -14.006010 0.000000 0.000000 0.000000 14.881567 21.991293 -32.378059 -6.054897 -14.468963 45.178664 -1.289574 -3.625684 -23.031651 -1.545298 7.834668 -22.219182 -2.678921 -4.180200 5.219818 0.064054 -5.726998 0.137222 1.963561 -2.821594 -2.506181 -3.404759 3.529569 -13.966371 0.978557 5.138994 -4.732723 1.121416 2.620648 0.725952 0.000000 0.000000 0.000000 14.903979 -0.484828 -54.713425 134.560051 -50.982113 97.419937 32.908027 -29.282234 -0.439115 0.000000 0.000000 0.000000 -7.125000 0.000000 0.000000 5.022000 30.482065 1.786414 0.000000 0.000000 0.000000 -10.005550 48.233586 40.177413 -69.654866 -58.375644 -42.476808 -51.081259 -47.288095 -35.492863 0.000000 0.000000 0.000000 7.125000 0.000000 0.000000 -9.119016 -18.121279 -11.621971
8.659656 18.173852 -1.333921 3.315468 0.449268 2.351247 0.000000 0.000000 0.000000 -29.552652 2.907919 15.791947 2.742192 10.264960 29.839677 -0.000692 11.791279 8.260326 0.541605 -4.715299 -13.098321 0.000000 0.000000 0.000000 14.827453 21.918026 -32.075989 -5.780212 -14.211131 44.091630 -1.319415 -3.447934 -23.184143 -1.635230 8.059256 -22.895106 -2.663609 -4.188864 5.193515 0.011968 -5.738884 0.106543 1.902115 -2.827182 -2.529347 -3.840016 3.551422 -13.729477 1.434070 5.223645 -4.975814 1.331846 2.681379 0.584651 0.000000 0.000000 0.000000 14.953173 -0.150036 -54.930378 134.493303 -51.014310 97.368091 32.892692 -29.352020 -0.380111 0.000000 0.000000 0.000000 -7.125000 0.000000 0.000000 5.006444 30.412032 1.789342 0.000000 0.000000 0.000000 -9.749927 48.249038 39.965456 -69.962210 -58.426972 -42.738435 -51.051022 -47.347516 -35.498745 0.000000 0.000000 0.000000 7.125000 0.000000 0.000000 -9.101823 -18.110959 -11.598566
